<svg xmlns="http://www.w3.org/2000/svg" viewBox="0 0 32 32" width="32" height="32">
  <!-- Background circle with gradient -->
  <defs>
    <linearGradient id="bgGradient" x1="0%" y1="0%" x2="100%" y2="100%">
      <stop offset="0%" style="stop-color:#0B3C49;stop-opacity:1" />
      <stop offset="100%" style="stop-color:#1E3A8A;stop-opacity:1" />
    </linearGradient>
    <linearGradient id="fiberGradient" x1="0%" y1="0%" x2="100%" y2="100%">
      <stop offset="0%" style="stop-color:#00A86B;stop-opacity:1" />
      <stop offset="100%" style="stop-color:#00D084;stop-opacity:1" />
    </linearGradient>
  </defs>
  
  <!-- Background circle -->
  <circle cx="16" cy="16" r="16" fill="url(#bgGradient)"/>
  
  <!-- Fiber optic cable representation -->
  <!-- Main cable line -->
  <path d="M8 16 L24 16" stroke="url(#fiberGradient)" stroke-width="3" stroke-linecap="round"/>
  
  <!-- Fiber strands (light lines) -->
  <path d="M8 12 L24 12" stroke="#ffffff" stroke-width="1.5" stroke-linecap="round" opacity="0.8"/>
  <path d="M8 14 L24 14" stroke="#ffffff" stroke-width="1.5" stroke-linecap="round" opacity="0.8"/>
  <path d="M8 18 L24 18" stroke="#ffffff" stroke-width="1.5" stroke-linecap="round" opacity="0.8"/>
  <path d="M8 20 L24 20" stroke="#ffffff" stroke-width="1.5" stroke-linecap="round" opacity="0.8"/>
  
  <!-- Connection points -->
  <circle cx="8" cy="16" r="2.5" fill="url(#fiberGradient)"/>
  <circle cx="24" cy="16" r="2.5" fill="url(#fiberGradient)"/>
  
  <!-- Signal indicators -->
  <circle cx="8" cy="16" r="1" fill="#ffffff" opacity="0.9"/>
  <circle cx="24" cy="16" r="1" fill="#ffffff" opacity="0.9"/>
  
  <!-- Speed lines -->
  <path d="M6 8 L10 12" stroke="#ffffff" stroke-width="1" stroke-linecap="round" opacity="0.6"/>
  <path d="M26 8 L22 12" stroke="#ffffff" stroke-width="1" stroke-linecap="round" opacity="0.6"/>
  <path d="M6 24 L10 20" stroke="#ffffff" stroke-width="1" stroke-linecap="round" opacity="0.6"/>
  <path d="M26 24 L22 20" stroke="#ffffff" stroke-width="1" stroke-linecap="round" opacity="0.6"/>
</svg>
